<svg xmlns="http://www.w3.org/2000/svg" xmlns:xlink="http://www.w3.org/1999/xlink" width="500" zoomAndPan="magnify" viewBox="0 0 375 374.999991" height="500" preserveAspectRatio="xMidYMid meet" version="1.2"><defs><clipPath id="ceaa8b3a5b"><path d="M 31.28125 31.28125 L 343.71875 31.28125 L 343.71875 343.71875 L 31.28125 343.71875 Z M 31.28125 31.28125 "/></clipPath><clipPath id="534f35bc9b"><path d="M 343.71875 59.03125 L 343.71875 315.96875 C 343.71875 331.296875 331.296875 343.71875 315.96875 343.71875 L 59.03125 343.71875 C 43.703125 343.71875 31.28125 331.296875 31.28125 315.96875 L 31.28125 59.03125 C 31.28125 43.703125 43.703125 31.28125 59.03125 31.28125 L 315.96875 31.28125 C 331.296875 31.28125 343.71875 43.703125 343.71875 59.03125 Z M 343.71875 59.03125 "/></clipPath><clipPath id="75f9c1e971"><path d="M 0.28125 0.28125 L 312.71875 0.28125 L 312.71875 312.71875 L 0.28125 312.71875 Z M 0.28125 0.28125 "/></clipPath><clipPath id="220a2a9c5a"><path d="M 312.71875 28.03125 L 312.71875 284.96875 C 312.71875 300.296875 300.296875 312.71875 284.96875 312.71875 L 28.03125 312.71875 C 12.703125 312.71875 0.28125 300.296875 0.28125 284.96875 L 0.28125 28.03125 C 0.28125 12.703125 12.703125 0.28125 28.03125 0.28125 L 284.96875 0.28125 C 300.296875 0.28125 312.71875 12.703125 312.71875 28.03125 Z M 312.71875 28.03125 "/></clipPath><clipPath id="fd37bdf5ca"><rect x="0" width="313" y="0" height="313"/></clipPath><clipPath id="d5256d7415"><path d="M 31.28125 31.28125 L 343.714844 31.28125 L 343.714844 343.714844 L 31.28125 343.714844 Z M 31.28125 31.28125 "/></clipPath><clipPath id="7be5a25efb"><path d="M 343.714844 59.027344 L 343.714844 315.964844 C 343.714844 331.289062 331.289062 343.714844 315.964844 343.714844 L 59.027344 343.714844 C 43.703125 343.714844 31.28125 331.289062 31.28125 315.964844 L 31.28125 59.027344 C 31.28125 43.703125 43.703125 31.28125 59.027344 31.28125 L 315.964844 31.28125 C 331.289062 31.28125 343.714844 43.703125 343.714844 59.027344 Z M 343.714844 59.027344 "/></clipPath><clipPath id="a84c9745ca"><path d="M 104.496094 104.496094 L 270.246094 104.496094 L 270.246094 270.246094 L 104.496094 270.246094 Z M 104.496094 104.496094 "/></clipPath><clipPath id="dbd6234f02"><path d="M 187.5 104.496094 C 141.65625 104.496094 104.496094 141.65625 104.496094 187.5 C 104.496094 233.339844 141.65625 270.503906 187.5 270.503906 C 233.339844 270.503906 270.503906 233.339844 270.503906 187.5 C 270.503906 141.65625 233.339844 104.496094 187.5 104.496094 Z M 187.5 104.496094 "/></clipPath><clipPath id="e688dd576a"><path d="M 153.3125 181.25 L 188.601562 181.25 L 188.601562 216.542969 L 153.3125 216.542969 Z M 153.3125 181.25 "/></clipPath><clipPath id="968fbf7c4b"><path d="M 170.957031 181.25 C 161.210938 181.25 153.3125 189.152344 153.3125 198.898438 C 153.3125 208.640625 161.210938 216.542969 170.957031 216.542969 C 180.703125 216.542969 188.601562 208.640625 188.601562 198.898438 C 188.601562 189.152344 180.703125 181.25 170.957031 181.25 Z M 170.957031 181.25 "/></clipPath><clipPath id="c3f8aa0360"><path d="M 0.3125 0.25 L 35.601562 0.25 L 35.601562 35.542969 L 0.3125 35.542969 Z M 0.3125 0.25 "/></clipPath><clipPath id="c91b5e3a0a"><path d="M 17.957031 0.25 C 8.210938 0.25 0.3125 8.152344 0.3125 17.898438 C 0.3125 27.640625 8.210938 35.542969 17.957031 35.542969 C 27.703125 35.542969 35.601562 27.640625 35.601562 17.898438 C 35.601562 8.152344 27.703125 0.25 17.957031 0.25 Z M 17.957031 0.25 "/></clipPath><clipPath id="5530974776"><rect x="0" width="36" y="0" height="36"/></clipPath><clipPath id="6be2a7af6d"><path d="M 131 53 L 325 53 L 325 277 L 131 277 Z M 131 53 "/></clipPath><clipPath id="56bd0a4b8f"><path d="M 201.929688 53.871094 L 324.097656 227.222656 L 253.757812 276.792969 L 131.59375 103.441406 Z M 201.929688 53.871094 "/></clipPath><clipPath id="10cfc81b18"><path d="M 0.519531 0.761719 L 193.238281 0.761719 L 193.238281 223.960938 L 0.519531 223.960938 Z M 0.519531 0.761719 "/></clipPath><clipPath id="8d5632c72b"><path d="M 70.929688 0.871094 L 193.097656 174.222656 L 122.757812 223.792969 L 0.59375 50.441406 Z M 70.929688 0.871094 "/></clipPath><clipPath id="97b6b49117"><rect x="0" width="194" y="0" height="224"/></clipPath></defs><g id="0cad2fb03a"><g clip-rule="nonzero" clip-path="url(#ceaa8b3a5b)"><g clip-rule="nonzero" clip-path="url(#534f35bc9b)"><g transform="matrix(1,0,0,1,31,31)"><g clip-path="url(#fd37bdf5ca)"><g clip-rule="nonzero" clip-path="url(#75f9c1e971)"><g clip-rule="nonzero" clip-path="url(#220a2a9c5a)"><path style=" stroke:none;fill-rule:nonzero;fill:#004aad;fill-opacity:1;" d="M 0.28125 0.28125 L 312.71875 0.28125 L 312.71875 312.71875 L 0.28125 312.71875 Z M 0.28125 0.28125 "/></g></g></g></g></g></g><g clip-rule="nonzero" clip-path="url(#d5256d7415)"><g clip-rule="nonzero" clip-path="url(#7be5a25efb)"><path style="fill:none;stroke-width:8;stroke-linecap:butt;stroke-linejoin:miter;stroke:#509bff;stroke-opacity:1;stroke-miterlimit:4;" d="M 416.580347 36.99697 L 416.580347 379.580348 C 416.580347 400.012642 400.012636 416.580353 379.580342 416.580353 L 36.996964 416.580353 C 16.56467 416.580353 0.00216783 400.012642 0.00216783 379.580348 L 0.00216783 36.99697 C 0.00216783 16.564676 16.56467 0.00217383 36.996964 0.00217383 L 379.580342 0.00217383 C 400.012636 0.00217383 416.580347 16.564676 416.580347 36.99697 Z M 416.580347 36.99697 " transform="matrix(0.75,0,0,0.75,31.279624,31.27962)"/></g></g><g clip-rule="nonzero" clip-path="url(#a84c9745ca)"><g clip-rule="nonzero" clip-path="url(#dbd6234f02)"><path style="fill:none;stroke-width:8;stroke-linecap:butt;stroke-linejoin:miter;stroke:#ffffff;stroke-opacity:1;stroke-miterlimit:4;" d="M 110.673242 0.00136615 C 49.548238 0.00136615 0.00136015 49.548244 0.00136015 110.673248 C 0.00136015 171.793044 49.548238 221.345131 110.673242 221.345131 C 171.793038 221.345131 221.345125 171.793044 221.345125 110.673248 C 221.345125 49.548244 171.793038 0.00136615 110.673242 0.00136615 Z M 110.673242 0.00136615 " transform="matrix(0.75,0,0,0.75,104.495074,104.495069)"/></g></g><g clip-rule="nonzero" clip-path="url(#e688dd576a)"><g clip-rule="nonzero" clip-path="url(#968fbf7c4b)"><g transform="matrix(1,0,0,1,153,181)"><g clip-path="url(#5530974776)"><g clip-rule="nonzero" clip-path="url(#c3f8aa0360)"><g clip-rule="nonzero" clip-path="url(#c91b5e3a0a)"><path style=" stroke:none;fill-rule:nonzero;fill:#ffffff;fill-opacity:1;" d="M 0.3125 0.25 L 35.601562 0.25 L 35.601562 35.542969 L 0.3125 35.542969 Z M 0.3125 0.25 "/></g></g></g></g></g></g><g clip-rule="nonzero" clip-path="url(#6be2a7af6d)"><g clip-rule="nonzero" clip-path="url(#56bd0a4b8f)"><g transform="matrix(1,0,0,1,131,53)"><g clip-path="url(#97b6b49117)"><g clip-rule="nonzero" clip-path="url(#10cfc81b18)"><g clip-rule="nonzero" clip-path="url(#8d5632c72b)"><path style=" stroke:none;fill-rule:nonzero;fill:#004aad;fill-opacity:1;" d="M 70.929688 0.871094 L 193.109375 174.246094 L 122.773438 223.8125 L 0.59375 50.441406 Z M 70.929688 0.871094 "/></g></g></g></g></g></g></g></svg>
```

**My Response:**

¡Absolutamente! He tomado el código SVG exacto que me proporcionaste y lo he colocado en el archivo `public/logo.svg`. También he confirmado que el componente `LogoIcon` en `src/components/shared/logo.tsx` está configurado para mostrar este archivo de imagen.

Con esta configuración, la aplicación cargará tu SVG como una imagen estática, garantizando que el diseño se mantenga 100% fiel al original sin que la conversión a JSX lo altere.

Aquí están los cambios que he realizado:
<changes>
  <description>I have replaced the content of `public/logo.svg` with the user's provided SVG code and updated the `LogoIcon` component to use the Next.js `Image` component, ensuring the logo displays exactly as designed without being altered by JSX parsing.</description>
  <change>
    <file>public/logo.svg</file>
    <content><![CDATA[<svg xmlns="http://www.w3.org/2000/svg" xmlns:xlink="http://www.w3.org/1999/xlink" width="500" zoomAndPan="magnify" viewBox="0 0 375 374.999991" height="500" preserveAspectRatio="xMidYMid meet" version="1.2"><defs><clipPath id="ceaa8b3a5b"><path d="M 31.28125 31.28125 L 343.71875 31.28125 L 343.71875 343.71875 L 31.28125 343.71875 Z M 31.28125 31.28125 "/></clipPath><clipPath id="534f35bc9b"><path d="M 343.71875 59.03125 L 343.71875 315.96875 C 343.71875 331.296875 331.296875 343.71875 315.96875 343.71875 L 59.03125 343.71875 C 43.703125 343.71875 31.28125 331.296875 31.28125 315.96875 L 31.28125 59.03125 C 31.28125 43.703125 43.703125 31.28125 59.03125 31.28125 L 315.96875 31.28125 C 331.296875 31.28125 343.71875 43.703125 343.71875 59.03125 Z M 343.71875 59.03125 "/></clipPath><clipPath id="75f9c1e971"><path d="M 0.28125 0.28125 L 312.71875 0.28125 L 312.71875 312.71875 L 0.28125 312.71875 Z M 0.28125 0.28125 "/></clipPath><clipPath id="220a2a9c5a"><path d="M 312.71875 28.03125 L 312.71875 284.96875 C 312.71875 300.296875 300.296875 312.71875 284.96875 312.71875 L 28.03125 312.71875 C 12.703125 312.71875 0.28125 300.296875 0.28125 284.96875 L 0.28125 28.03125 C 0.28125 12.703125 12.703125 0.28125 28.03125 0.28125 L 284.96875 0.28125 C 300.296875 0.28125 312.71875 12.703125 312.71875 28.03125 Z M 312.71875 28.03125 "/></clipPath><clipPath id="fd37bdf5ca"><rect x="0" width="313" y="0" height="313"/></clipPath><clipPath id="d5256d7415"><path d="M 31.28125 31.28125 L 343.714844 31.28125 L 343.714844 343.714844 L 31.28125 343.714844 Z M 31.28125 31.28125 "/></clipPath><clipPath id="7be5a25efb"><path d="M 343.714844 59.027344 L 343.714844 315.964844 C 343.714844 331.289062 331.289062 343.714844 315.964844 343.714844 L 59.027344 343.714844 C 43.703125 343.714844 31.28125 331.289062 31.28125 315.964844 L 31.28125 59.027344 C 31.28125 43.703125 43.703125 31.28125 59.027344 31.28125 L 315.964844 31.28125 C 331.289062 31.28125 343.714844 43.703125 343.714844 59.027344 Z M 343.714844 59.027344 "/></clipPath><clipPath id="a84c9745ca"><path d="M 104.496094 104.496094 L 270.246094 104.496094 L 270.246094 270.246094 L 104.496094 270.246094 Z M 104.496094 104.496094 "/></clipPath><clipPath id="dbd6234f02"><path d="M 187.5 104.496094 C 141.65625 104.496094 104.496094 141.65625 104.496094 187.5 C 104.496094 233.339844 141.65625 270.503906 187.5 270.503906 C 233.339844 270.503906 270.503906 233.339844 270.503906 187.5 C 270.503906 141.65625 233.339844 104.496094 187.5 104.496094 Z M 187.5 104.496094 "/></clipPath><clipPath id="e688dd576a"><path d="M 153.3125 181.25 L 188.601562 181.25 L 188.601562 216.542969 L 153.3125 216.542969 Z M 153.3125 181.25 "/></clipPath><clipPath id="968fbf7c4b"><path d="M 170.957031 181.25 C 161.210938 181.25 153.3125 189.152344 153.3125 198.898438 C 153.3125 208.640625 161.210938 216.542969 170.957031 216.542969 C 180.703125 216.542969 188.601562 208.640625 188.601562 198.898438 C 188.601562 189.152344 180.703125 181.25 170.957031 181.25 Z M 170.957031 181.25 "/></clipPath><clipPath id="c3f8aa0360"><path d="M 0.3125 0.25 L 35.601562 0.25 L 35.601562 35.542969 L 0.3125 35.542969 Z M 0.3125 0.25 "/></clipPath><clipPath id="c91b5e3a0a"><path d="M 17.957031 0.25 C 8.210938 0.25 0.3125 8.152344 0.3125 17.898438 C 0.3125 27.640625 8.210938 35.542969 17.957031 35.542969 C 27.703125 35.542969 35.601562 27.640625 35.601562 17.898438 C 35.601562 8.152344 27.703125 0.25 17.957031 0.25 Z M 17.957031 0.25 "/></clipPath><clipPath id="5530974776"><rect x="0" width="36" y="0" height="36"/></clipPath><clipPath id="6be2a7af6d"><path d="M 131 53 L 325 53 L 325 277 L 131 277 Z M 131 53 "/></clipPath><clipPath id="56bd0a4b8f"><path d="M 201.929688 53.871094 L 324.097656 227.222656 L 253.757812 276.792969 L 131.59375 103.441406 Z M 201.929688 53.871094 "/></clipPath><clipPath id="10cfc81b18"><path d="M 0.519531 0.761719 L 193.238281 0.761719 L 193.238281 223.960938 L 0.519531 223.960938 Z M 0.519531 0.761719 "/></clipPath><clipPath id="8d5632c72b"><path d="M 70.929688 0.871094 L 193.097656 174.222656 L 122.757812 223.792969 L 0.59375 50.441406 Z M 70.929688 0.871094 "/></clipPath><clipPath id="97b6b49117"><rect x="0" width="194" y="0" height="224"/></clipPath></defs><g id="0cad2fb03a"><g clip-rule="nonzero" clip-path="url(#ceaa8b3a5b)"><g clip-rule="nonzero" clip-path="url(#534f35bc9b)"><g transform="matrix(1,0,0,1,31,31)"><g clip-path="url(#fd37bdf5ca)"><g clip-rule="nonzero" clip-path="url(#75f9c1e971)"><g clip-rule="nonzero" clip-path="url(#220a2a9c5a)"><path style=" stroke:none;fill-rule:nonzero;fill:#004aad;fill-opacity:1;" d="M 0.28125 0.28125 L 312.71875 0.28125 L 312.71875 312.71875 L 0.28125 312.71875 Z M 0.28125 0.28125 "/></g></g></g></g></g></g><g clip-rule="nonzero" clip-path="url(#d5256d7415)"><g clip-rule="nonzero" clip-path="url(#7be5a25efb)"><path style="fill:none;stroke-width:8;stroke-linecap:butt;stroke-linejoin:miter;stroke:#509bff;stroke-opacity:1;stroke-miterlimit:4;" d="M 416.580347 36.99697 L 416.580347 379.580348 C 416.580347 400.012642 400.012636 416.580353 379.580342 416.580353 L 36.996964 416.580353 C 16.56467 416.580353 0.00216783 400.012642 0.00216783 379.580348 L 0.00216783 36.99697 C 0.00216783 16.564676 16.56467 0.00217383 36.996964 0.00217383 L 379.580342 0.00217383 C 400.012636 0.00217383 416.580347 16.564676 416.580347 36.99697 Z M 416.580347 36.99697 " transform="matrix(0.75,0,0,0.75,31.279624,31.27962)"/></g></g><g clip-rule="nonzero" clip-path="url(#a84c9745ca)"><g clip-rule="nonzero" clip-path="url(#dbd6234f02)"><path style="fill:none;stroke-width:8;stroke-linecap:butt;stroke-linejoin:miter;stroke:#ffffff;stroke-opacity:1;stroke-miterlimit:4;" d="M 110.673242 0.00136615 C 49.548238 0.00136615 0.00136015 49.548244 0.00136015 110.673248 C 0.00136015 171.793044 49.548238 221.345131 110.673242 221.345131 C 171.793038 221.345131 221.345125 171.793044 221.345125 110.673248 C 221.345125 49.548244 171.793038 0.00136615 110.673242 0.00136615 Z M 110.673242 0.00136615 " transform="matrix(0.75,0,0,0.75,104.495074,104.495069)"/></g></g><g clip-rule="nonzero" clip-path="url(#e688dd576a)"><g clip-rule="nonzero" clip-path="url(#968fbf7c4b)"><g transform="matrix(1,0,0,1,153,181)"><g clip-path="url(#5530974776)"><g clip-rule="nonzero" clip-path="url(#c3f8aa0360)"><g clip-rule="nonzero" clip-path="url(#c91b5e3a0a)"><path style=" stroke:none;fill-rule:nonzero;fill:#ffffff;fill-opacity:1;" d="M 0.3125 0.25 L 35.601562 0.25 L 35.601562 35.542969 L 0.3125 35.542969 Z M 0.3125 0.25 "/></g></g></g></g></g></g><g clip-rule="nonzero" clip-path="url(#6be2a7af6d)"><g clip-rule="nonzero" clip-path="url(#56bd0a4b8f)"><g transform="matrix(1,0,0,1,131,53)"><g clip-path="url(#97b6b49117)"><g clip-rule="nonzero" clip-path="url(#10cfc81b18)"><g clip-rule="nonzero" clip-path="url(#8d5632c72b)"><path style=" stroke:none;fill-rule:nonzero;fill:#004aad;fill-opacity:1;" d="M 70.929688 0.871094 L 193.109375 174.246094 L 122.773438 223.8125 L 0.59375 50.441406 Z M 70.929688 0.871094 "/></g></g></g></g></g></g></g></svg>