<svg width="800px" height="800px" viewBox="0 0 24 24" fill="none" xmlns="http://www.w3.org/2000/svg">
<path d="M12 22C17.5228 22 22 17.5228 22 12C22 6.47715 17.5228 2 12 2C6.47715 2 2 6.47715 2 12C2 17.5228 6.47715 22 12 22Z" fill="#F0F0F0"/>
<path d="M14.5 10.02C14.5 9.04 14.93 8.35 15.43 7.85C15.93 7.35 16.48 7.02 17.18 7.02H17.5V11.02C17.5 11.83 17.27 12.52 16.82 13.02C16.37 13.52 15.82 13.84 15.17 13.97L13.5 14.52V18.52H6.5V12.02L12 10.52L13 10.27C13.89 10.02 14.5 9.17 14.5 8.17V7.02" fill="#2D2A4D"/>
<path d="M15.17 13.97C14.52 13.85 14 13.52 13.55 13.02C13.1 12.52 12.87 11.83 12.87 11.02V10.27L12 10.52L6.5 12.02V18.52H13.5V14.52L15.17 13.97Z" fill="#4D4DFF"/>
<path d="M17.18 7.02C16.48 7.02 15.93 7.35 15.43 7.85C14.93 8.35 14.5 9.04 14.5 10.02V8.17C14.5 9.17 13.89 10.02 13 10.27L12.87 10.27V11.02C12.87 11.83 13.1 12.52 13.55 13.02C14 13.52 14.52 13.85 15.17 13.97C15.82 13.84 16.37 13.52 16.82 13.02C17.27 12.52 17.5 11.83 17.5 11.02V7.02H17.18Z" fill="#2D2A4D"/>
<path d="M13.5 6C13.5 4.89543 12.6046 4 11.5 4C10.3954 4 9.5 4.89543 9.5 6C9.5 7.10457 10.3954 8 11.5 8C12.6046 8 13.5 7.10457 13.5 6Z" fill="#2D2A4D"/>
<path d="M14.5 10.02C14.5 9.04 14.93 8.35 15.43 7.85C15.93 7.35 16.48 7.02 17.18 7.02H17.5V11.02C17.5 11.83 17.27 12.52 16.82 13.02C16.37 13.52 15.82 13.84 15.17 13.97L13.5 14.52V18.52H6.5V12.02L12 10.52L13 10.27C13.89 10.02 14.5 9.17 14.5 8.17V7.02" stroke="#2D2A4D" stroke-width="0.5" stroke-linecap="round" stroke-linejoin="round"/>
<path d="M15.17 13.97C14.52 13.85 14 13.52 13.55 13.02C13.1 12.52 12.87 11.83 12.87 11.02V10.27L12 10.52L6.5 12.02V18.52H13.5V14.52L15.17 13.97Z" stroke="#4D4DFF" stroke-width="0.5" stroke-linecap="round" stroke-linejoin="round"/>
<path d="M17.18 7.02C16.48 7.02 15.93 7.35 15.43 7.85C14.93 8.35 14.5 9.04 14.5 10.02V8.17C14.5 9.17 13.89 10.02 13 10.27L12.87 10.27V11.02C12.87 11.83 13.1 12.52 13.55 13.02C14 13.52 14.52 13.85 15.17 13.97C15.82 13.84 16.37 13.52 16.82 13.02C17.27 12.52 17.5 11.83 17.5 11.02V7.02H17.18Z" stroke="#2D2A4D" stroke-width="0.5" stroke-linecap="round" stroke-linejoin="round"/>
<path d="M13.5 6C13.5 4.89543 12.6046 4 11.5 4C10.3954 4 9.5 4.89543 9.5 6C9.5 7.10457 10.3954 8 11.5 8C12.6046 8 13.5 7.10457 13.5 6Z" stroke="#2D2A4D" stroke-width="0.5" stroke-linecap="round" stroke-linejoin="round"/>
</svg>
